<?xml version="1.0" encoding="utf-8"?>
<!-- Generator: Adobe Illustrator 24.0.1, SVG Export Plug-In . SVG Version: 6.00 Build 0)  -->
<svg version="1.1" id="Layer_1" focusable="false" xmlns="http://www.w3.org/2000/svg" xmlns:xlink="http://www.w3.org/1999/xlink"
	 x="0px" y="0px" viewBox="0 0 640 512" style="enable-background:new 0 0 640 512;" xml:space="preserve">
<style type="text/css">
	.st0{fill:#212529;}
	.st1{fill:#FFFFFF;}
</style>
<path class="st0" d="M595.8,512H44.3C19.8,512,0,492.2,0,467.8V44.3C0,19.8,19.8,0,44.3,0h551.5C620.2,0,640,19.8,640,44.3v423.5
	C640,492.2,620.2,512,595.8,512z"/>
<path class="st1" d="M559.2,413L340.5,72.7c-4.5-7-12.2-11.2-20.5-11.2s-16,4.2-20.5,11.2L80.8,413c-4.8,7.5-5.2,17-0.9,24.8
	c4.3,7.8,12.4,12.7,21.3,12.7h437.6c8.9,0,17.1-4.9,21.3-12.7C564.4,430,564.1,420.5,559.2,413L559.2,413z M320,130.8l64.9,100.9
	H320l-48.6,48.6l-28.9-28.9L320,130.8z"/>
</svg>
